PathFileType	4	(X/Y/Z)	E:\Qualisys_Data\Carbon_Farble_Plate\Data\Amateur_Runner\S2\T3\S2T3V13_c3d.trc
DataRate	CameraRate	NumFrames	NumMarkers	Units	OrigDataRate	OrigDataStartFrame	OrigNumFrames
200.000000	200.000000	4	39	mm	200.000000	117	312
Frame#	Time	LSHO			RSHO			LICST			RICST			LASIS			LHEEL			RASIS			LTROC			RTROC			SACR			LTH1			LSK4			LTH2			LTH3			RHM5			LSK2			LTH4			RTH1			LTOE			RTH2			RTH3			RTH4			LLEP			RLEP			LSK1			LSK3			RSK1			LHM5			RSK2			LFT1			RSK3			RSK4			LLME			RLME			RTOE			RHEEL			RFT1			RFT2			LFT2			
		X1	Y1	Z1	X2	Y2	Z2	X3	Y3	Z3	X4	Y4	Z4	X5	Y5	Z5	X6	Y6	Z6	X7	Y7	Z7	X8	Y8	Z8	X9	Y9	Z9	X10	Y10	Z10	X11	Y11	Z11	X12	Y12	Z12	X13	Y13	Z13	X14	Y14	Z14	X15	Y15	Z15	X16	Y16	Z16	X17	Y17	Z17	X18	Y18	Z18	X19	Y19	Z19	X20	Y20	Z20	X21	Y21	Z21	X22	Y22	Z22	X23	Y23	Z23	X24	Y24	Z24	X25	Y25	Z25	X26	Y26	Z26	X27	Y27	Z27	X28	Y28	Z28	X29	Y29	Z29	X30	Y30	Z30	X31	Y31	Z31	X32	Y32	Z32	X33	Y33	Z33	X34	Y34	Z34	X35	Y35	Z35	X36	Y36	Z36	X37	Y37	Z37	X38	Y38	Z38	X39	Y39	Z39	

118	0.585	-659.79833984375	1423.088989257812	-543.6551513671875	-665.88623046875	1419.319580078125	-220.7905578613281	-754.947021484375	975.1292724609376	-510.589111328125	-732.0499877929688	965.054443359375	-204.8572540283203	-698.8787841796875	927.0707397460938	-496.30419921875	-1057.96240234375	137.1028442382812	-376.9511413574219	-673.5995483398438	919.5178833007812	-235.0550231933594	-832.6780395507812	858.9284057617188	-499.0318603515625	-811.0469360351562	859.6640014648438	-198.0458374023438	-832.1287841796875	1016.847106933594	-352.8389587402344	-713.411376953125	612.0091552734375	-508.5005798339844	-920.7740478515624	293.35791015625	-467.9541625976562	-794.9867553710938	610.7465209960938	-505.9233703613281	-712.190185546875	510.487548828125	-481.7410888671875	-911.5154418945312	188.677734375	-206.5341033935547	-865.0557250976562	374.3089904785156	-488.1397705078125	-796.662841796875	513.7316284179688	-478.5862731933594	-583.8242797851562	643.9574584960938	-187.2091064453125	-826.0335083007812	65.46862030029297	-395.4869995117188	-658.5604248046875	617.5982055664062	-181.1243591308594	-552.2592163085938	548.1793823242188	-204.1382904052734	-631.9947509765625	524.0770263671875	-201.0209197998047	-761.07421875	466.1000061035156	-479.5623168945312	-598.6495361328125	505.7170104980469	-196.6672515869141	-799.9884643554688	332.0919189453125	-474.0243225097656	-855.2538452148438	249.9458160400391	-457.8956604003906	-663.7133178710938	416.783447265625	-200.2220764160156	-890.0997924804688	63.35006713867188	-455.43505859375	-700.176025390625	488.78271484375	-199.90673828125	-1054.3349609375	107.7001953125	-348.0679931640625	-753.919189453125	370.2439880371094	-211.7073364257812	-787.3076782226562	442.6475524902344	-213.0953216552734	-987.3684692382812	133.9014892578125	-432.8589477539062	-932.3462524414062	317.7014465332031	-241.2494812011719	-859.8970336914062	138.2044982910156	-256.6372375488281	-978.7322387695312	357.11767578125	-304.9196472167969	-988.733154296875	331.0440368652344	-333.1212768554688	-999.0797119140624	348.0088806152344	-284.2381286621094	-1064.055908203125	105.0338973999023	-399.7525634765625
119	0.59	-641.611083984375	1427.841674804688	-542.1835327148438	-652.3392333984375	1423.33154296875	-219.9094543457031	-737.9518432617188	979.28125	-509.8022766113281	-716.0032348632812	969.9364624023438	-204.4503173828125	-682.9407958984375	930.4181518554688	-495.7498474121094	-1054.366821289062	142.7005615234375	-377.8186340332031	-657.732421875	924.0418090820312	-235.0783081054688	-817.6725463867188	863.1595458984375	-498.1962890625	-794.1974487304688	864.7465209960938	-196.5182495117188	-815.9862670898438	1021.168640136719	-353.1857604980469	-703.0879516601562	615.8157348632812	-507.9265441894531	-915.8365478515624	298.5781555175781	-469.268798828125	-784.45947265625	616.136962890625	-505.6043395996094	-703.6847534179688	514.29443359375	-481.419921875	-878.030029296875	183.7920227050781	-205.5760040283203	-859.8833618164062	379.4161682128906	-488.7482604980469	-788.1895141601562	519.379638671875	-479.5526428222656	-565.2819213867188	651.4315185546875	-187.6434020996094	-824.9297485351562	65.38621520996094	-395.6512756347656	-639.3911743164062	624.02490234375	-181.2720184326172	-532.2161865234375	556.4468994140625	-204.7118682861328	-611.189208984375	530.6749877929688	-200.9841003417969	-754.3065185546875	470.6929626464844	-480.2776794433594	-577.8838500976562	512.7100219726562	-197.3319549560547	-795.2257690429688	336.911865234375	-475.2828369140625	-850.671630859375	255.0796508789062	-459.5899047851562	-640.5931396484375	421.0204772949219	-200.6753845214844	-888.858154296875	63.98892593383789	-455.2237243652344	-679.6759643554688	491.4725036621094	-200.0113983154297	-1051.314331054688	113.5192337036133	-348.1596069335938	-728.842529296875	371.03515625	-211.7293090820312	-764.9613037109375	442.0186767578125	-213.1697082519531	-983.1805419921876	138.9009552001953	-434.1437377929688	-905.6408081054688	311.6714172363281	-240.6040191650391	-824.7071533203125	135.6960754394531	-255.6363067626953	-953.8869018554688	348.2989501953125	-304.9817504882812	-963.1095581054688	322.2754821777344	-333.55908203125	-974.9744262695312	336.1715087890625	-285.0615844726562	-1061.188842773438	110.3522338867188	-399.9237976074219
120	0.595	-623.7802124023438	1432.60400390625	-540.5174560546875	-638.3028564453125	1427.9697265625	-219.0369262695312	-721.0091552734375	983.4243774414062	-509.0414123535156	-699.710693359375	975.056884765625	-204.5202026367188	-666.7630004882812	934.0006713867188	-495.4013061523438	-1049.861206054688	148.4948272705078	-379.326904296875	-641.9666748046875	929.0587768554688	-234.7965393066406	-802.60986328125	868.004150390625	-497.5736694335938	-777.5755615234375	870.28173828125	-194.7405548095703	-800.0729370117188	1026.00146484375	-353.7752685546875	-691.4016723632812	618.4146728515625	-506.9344482421875	-910.8937377929688	304.3397521972656	-470.2154846191406	-773.33544921875	622.4736328125	-506.1514282226562	-695.9685668945312	517.8335571289062	-480.7456665039062	-844.5880737304688	178.8428192138672	-205.1360626220703	-854.610107421875	384.6011047363281	-489.5874328613281	-779.5513305664062	524.8468017578125	-480.3370666503906	-546.7427368164062	658.8114013671875	-187.9835510253906	-823.5341796875	65.64273071289062	-396.362060546875	-620.5748901367188	629.9301147460938	-181.3513641357422	-512.7647705078125	564.0845947265625	-205.8695526123047	-591.2908325195312	537.2777099609375	-200.6031188964844	-746.978759765625	475.1281127929688	-480.8878479003906	-557.7620239257812	519.7119750976562	-197.7203216552734	-789.6741943359375	341.8625183105469	-476.9927673339844	-845.8140258789062	260.2814331054688	-461.3304138183594	-617.8668212890625	424.8529968261719	-200.7111968994141	-887.6539916992188	65.01819610595703	-455.4852294921875	-659.9067993164062	493.6427307128906	-200.4952392578125	-1047.931396484375	119.4487075805664	-348.9090270996094	-704.2906494140625	371.4033508300781	-211.9048309326172	-743.2177734375	441.1896667480469	-213.2292785644531	-978.8825073242188	144.185791015625	-435.5833740234375	-878.2621459960938	304.9452209472656	-240.3478546142578	-788.3380126953125	133.4591217041016	-254.9420471191406	-926.9616088867188	338.7037353515625	-303.8212890625	-936.439453125	311.8244323730469	-333.2947082519531	-948.8269653320312	326.1195068359375	-284.6882019042969	-1057.89599609375	116.442497253418	-400.3916931152344
121	0.6	-605.7350463867188	1437.647338867188	-539.16796875	-624.3530883789062	1432.566040039062	-218.4334411621094	-703.8895263671875	987.5486450195312	-508.6572875976562	-683.9512939453125	980.2493286132812	-204.0883178710938	-650.5697021484375	937.4236450195312	-494.7127685546875	-1045.078247070312	154.9556884765625	-379.8841247558594	-626.0654296875	934.2479858398438	-234.7906646728516	-787.0137939453125	872.3261108398438	-496.4414978027344	-761.1054077148438	875.6849365234375	-193.3195037841797	-783.9220581054688	1030.009399414062	-353.8741455078125	-680.0238647460938	622.1381225585938	-506.3714294433594	-905.6884765625	310.5233154296875	-470.7861938476562	-761.6807861328125	628.1990356445312	-506.1987609863281	-686.7369384765625	521.9521484375	-481.0658569335938	-810.5958862304688	174.5725250244141	-204.3792724609375	-848.8487548828125	390.6659545898438	-490.3128356933594	-770.716796875	530.6331176757812	-480.9284362792969	-528.5931396484375	665.8973388671875	-188.7863464355469	-822.0060424804688	65.84349822998047	-397.0548095703125	-601.7833251953125	636.2755737304688	-180.74609375	-493.3565063476562	571.8052368164062	-206.7901000976562	-570.6788330078125	544.2435913085938	-201.0386352539062	-739.67529296875	480.0893249511719	-481.3142395019531	-538.14306640625	526.3013916015625	-198.3901977539062	-784.2783203125	347.0755920410156	-478.2642211914062	-840.8416748046875	265.7319946289062	-463.2766723632812	-595.1349487304688	428.8840942382812	-201.1381683349609	-886.1852416992188	65.77145385742188	-456.3492431640625	-640.2015991210938	495.8222961425781	-200.2966156005859	-1043.939819335938	125.8325958251953	-349.7961730957031	-679.3485107421875	372.0528564453125	-211.7618103027344	-721.3240966796875	439.8686828613281	-212.8860015869141	-973.9832763671876	149.5359954833984	-436.8798522949219	-850.910400390625	298.1554565429688	-240.2268981933594	-752.7741088867188	131.3307495117188	-253.8975067138672	-900.94921875	329.3400573730469	-303.5176696777344	-909.4588012695312	301.9893188476562	-333.1878662109375	-922.7390747070312	315.4699096679688	-285.1829528808594	-1054.137329101562	122.8510208129883	-401.3869323730469
